# Blender v3.0.0 OBJ File: 'Field.blend'
# www.blender.org
mtllib light_field_mesh.mtl
o Cylinder
v -0.294449 -0.050000 -0.170000
v -0.331410 -0.020000 -0.174019
v -0.316410 -0.020000 -0.200000
v -0.304967 -0.048531 -0.170719
v -0.314789 -0.044273 -0.171565
v -0.300331 -0.048531 -0.178749
v -0.311366 -0.046792 -0.179736
v -0.320182 -0.042771 -0.180229
v -0.305974 -0.044273 -0.186833
v -0.316213 -0.042750 -0.187189
v -0.323114 -0.039901 -0.186550
v -0.335483 -0.020000 -0.182572
v -0.335879 -0.020000 -0.190085
v -0.328695 -0.029272 -0.173300
v -0.332622 -0.029518 -0.182097
v -0.332885 -0.029208 -0.188989
v -0.322973 -0.037631 -0.172454
v -0.327006 -0.037240 -0.180992
v -0.328076 -0.035874 -0.187090
v -0.314429 -0.029272 -0.198008
v -0.310836 -0.037631 -0.193475
v -0.325853 -0.020000 -0.199251
v -0.323946 -0.029572 -0.197003
v -0.320235 -0.037224 -0.192719
v -0.332558 -0.020000 -0.195837
v -0.330113 -0.029232 -0.193772
v -0.326063 -0.035874 -0.190578
v -0.294449 0.050000 -0.170000
v -0.316410 0.020000 -0.200000
v -0.331410 0.020000 -0.174019
v -0.300331 0.048531 -0.178749
v -0.305974 0.044273 -0.186833
v -0.304967 0.048531 -0.170719
v -0.311340 0.046792 -0.179783
v -0.316174 0.042771 -0.187172
v -0.314789 0.044273 -0.171565
v -0.320217 0.042750 -0.180254
v -0.323114 0.039901 -0.186550
v -0.325853 0.020000 -0.199251
v -0.332558 0.020000 -0.195837
v -0.314429 0.029272 -0.198008
v -0.324012 0.029518 -0.197010
v -0.330112 0.029208 -0.193793
v -0.310836 0.037631 -0.193475
v -0.320247 0.037240 -0.192699
v -0.326063 0.035874 -0.190578
v -0.328695 0.029272 -0.173300
v -0.322973 0.037631 -0.172454
v -0.335483 0.020000 -0.182572
v -0.332582 0.029572 -0.182044
v -0.327017 0.037224 -0.180972
v -0.335879 0.020000 -0.190085
v -0.332868 0.029232 -0.189000
v -0.328076 0.035874 -0.187090
v 0.294449 -0.050000 -0.170000
v 0.316410 -0.020000 -0.200000
v 0.331410 -0.020000 -0.174019
v 0.300331 -0.048531 -0.178749
v 0.305974 -0.044273 -0.186833
v 0.304967 -0.048531 -0.170719
v 0.311340 -0.046792 -0.179783
v 0.316174 -0.042771 -0.187172
v 0.314789 -0.044273 -0.171565
v 0.320217 -0.042750 -0.180254
v 0.323114 -0.039901 -0.186550
v 0.325853 -0.020000 -0.199251
v 0.332558 -0.020000 -0.195837
v 0.314429 -0.029272 -0.198008
v 0.324012 -0.029518 -0.197010
v 0.330112 -0.029208 -0.193793
v 0.310836 -0.037631 -0.193475
v 0.320247 -0.037240 -0.192699
v 0.326063 -0.035874 -0.190578
v 0.328695 -0.029272 -0.173300
v 0.322973 -0.037631 -0.172454
v 0.335483 -0.020000 -0.182572
v 0.332582 -0.029572 -0.182044
v 0.327017 -0.037224 -0.180972
v 0.335879 -0.020000 -0.190085
v 0.332868 -0.029232 -0.189000
v 0.328076 -0.035874 -0.187090
v 0.294449 0.050000 -0.170000
v 0.331410 0.020000 -0.174019
v 0.316410 0.020000 -0.200000
v 0.304967 0.048531 -0.170719
v 0.314789 0.044273 -0.171565
v 0.300331 0.048531 -0.178749
v 0.311366 0.046792 -0.179736
v 0.320182 0.042771 -0.180229
v 0.305974 0.044273 -0.186833
v 0.316213 0.042750 -0.187189
v 0.323114 0.039901 -0.186550
v 0.335483 0.020000 -0.182572
v 0.335879 0.020000 -0.190085
v 0.328695 0.029272 -0.173300
v 0.332622 0.029518 -0.182097
v 0.332885 0.029208 -0.188989
v 0.322973 0.037631 -0.172454
v 0.327006 0.037240 -0.180992
v 0.328076 0.035874 -0.187090
v 0.314429 0.029272 -0.198008
v 0.310836 0.037631 -0.193475
v 0.325853 0.020000 -0.199251
v 0.323945 0.029572 -0.197003
v 0.320235 0.037224 -0.192719
v 0.332558 0.020000 -0.195837
v 0.330113 0.029232 -0.193772
v 0.326063 0.035874 -0.190578
v -0.000000 -0.050000 0.340000
v 0.015000 -0.020000 0.374019
v -0.015000 -0.020000 0.374019
v 0.004636 -0.048531 0.349469
v 0.008815 -0.044273 0.358398
v -0.004636 -0.048531 0.349469
v 0.000027 -0.046792 0.359519
v 0.004008 -0.042771 0.367401
v -0.008815 -0.044273 0.358398
v -0.004004 -0.042750 0.367443
v -0.000000 -0.039901 0.373100
v 0.009629 -0.020000 0.381823
v 0.003321 -0.020000 0.385922
v 0.014266 -0.029272 0.371308
v 0.008610 -0.029518 0.379107
v 0.002774 -0.029208 0.382781
v 0.012136 -0.037631 0.365930
v 0.006759 -0.037240 0.373691
v 0.002014 -0.035874 0.377667
v -0.014266 -0.029272 0.371308
v -0.012136 -0.037631 0.365930
v -0.009630 -0.020000 0.381823
v -0.008637 -0.029572 0.379047
v -0.006782 -0.037224 0.373691
v -0.003321 -0.020000 0.385923
v -0.002755 -0.029232 0.382772
v -0.002014 -0.035874 0.377667
v -0.000000 0.050000 0.340000
v -0.015000 0.020000 0.374019
v 0.015000 0.020000 0.374019
v -0.004636 0.048531 0.349469
v -0.008815 0.044273 0.358398
v 0.004636 0.048531 0.349469
v -0.000027 0.046792 0.359519
v -0.004008 0.042771 0.367401
v 0.008815 0.044273 0.358398
v 0.004004 0.042750 0.367442
v 0.000000 0.039901 0.373100
v -0.009629 0.020000 0.381823
v -0.003321 0.020000 0.385922
v -0.014266 0.029272 0.371308
v -0.008610 0.029518 0.379107
v -0.002774 0.029208 0.382781
v -0.012136 0.037631 0.365930
v -0.006759 0.037240 0.373691
v -0.002014 0.035874 0.377667
v 0.014266 0.029272 0.371308
v 0.012136 0.037631 0.365930
v 0.009629 0.020000 0.381823
v 0.008637 0.029572 0.379046
v 0.006782 0.037224 0.373691
v 0.003321 0.020000 0.385922
v 0.002755 0.029232 0.382772
v 0.002014 0.035874 0.377667
vt 0.050518 0.978349
vt 0.021651 0.978349
vt 0.021651 0.521651
vt 0.050518 0.521651
vt 0.122687 0.978349
vt 0.093819 0.978349
vt 0.093819 0.521651
vt 0.122687 0.521651
vt 0.844375 0.462500
vt 0.476314 0.250000
vt 0.844375 0.037500
vt 0.916544 0.478349
vt 0.887676 0.478349
vt 0.887676 0.021651
vt 0.916544 0.021651
vt 0.043301 0.250000
vt 0.036468 0.253346
vt 0.029214 0.250019
vt 0.036468 0.246654
vt 0.030024 0.256362
vt 0.023527 0.252893
vt 0.068035 0.529182
vt 0.072169 0.525673
vt 0.072169 0.518882
vt 0.066952 0.521821
vt 0.023496 0.247110
vt 0.030024 0.243638
vt 0.019413 0.250000
vt 0.072169 0.514685
vt 0.064881 0.516812
vt 0.050518 0.514836
vt 0.057387 0.516165
vt 0.057210 0.523080
vt 0.050518 0.509997
vt 0.057163 0.511762
vt 0.916544 0.492400
vt 0.916544 0.500000
vt 0.923206 0.500000
vt 0.923189 0.490239
vt 0.062960 0.518882
vt 0.063242 0.525673
vt 0.061974 0.514685
vt 0.927999 0.500000
vt 0.927999 0.486769
vt 0.923235 0.476920
vt 0.923451 0.483788
vt 0.916544 0.485164
vt 0.929267 0.474327
vt 0.928974 0.481110
vt 0.938194 0.470818
vt 0.938194 0.478207
vt 0.923206 0.488239
vt 0.916544 0.490003
vt 0.927999 0.485315
vt 0.938194 0.483188
vt 0.930906 0.483188
vt 0.938194 0.486769
vt 0.938194 0.485315
vt 0.469480 0.253346
vt 0.462227 0.250019
vt 0.469480 0.246654
vt 0.463036 0.256362
vt 0.456539 0.252893
vt 0.870159 0.470818
vt 0.866025 0.474327
vt 0.866025 0.481118
vt 0.871242 0.478179
vt 0.456509 0.247110
vt 0.463036 0.243638
vt 0.452426 0.250000
vt 0.866026 0.485316
vt 0.873314 0.483188
vt 0.887676 0.485164
vt 0.880807 0.483835
vt 0.880984 0.476920
vt 0.887676 0.490003
vt 0.881031 0.488238
vt 0.887676 0.500000
vt 0.881014 0.500000
vt 0.875234 0.481118
vt 0.874952 0.474327
vt 0.876220 0.485316
vt 0.876220 0.500000
vt 0.014959 0.523080
vt 0.014743 0.516213
vt 0.021651 0.514836
vt 0.008927 0.525673
vt 0.009220 0.518890
vt 0.457601 0.241241
vt 0.458285 0.235409
vt 0.451886 0.239103
vt 0.452000 0.245106
vt 0.014988 0.511762
vt 0.021651 0.509997
vt 0.010195 0.514685
vt 0.447573 0.241594
vt 0.449130 0.248547
vt 0.866025 0.486769
vt 0.411362 0.037500
vt 0.411881 0.029909
vt 0.418389 0.025291
vt 0.417676 0.033255
vt 0.412491 0.022820
vt 0.418744 0.018928
vt 0.934061 0.029182
vt 0.938194 0.025673
vt 0.938194 0.018882
vt 0.932977 0.021821
vt 0.423767 0.021793
vt 0.423510 0.029182
vt 0.423306 0.016812
vt 0.938194 0.014685
vt 0.930906 0.016812
vt 0.916544 0.014836
vt 0.923413 0.016165
vt 0.923235 0.023080
vt 0.916544 0.009997
vt 0.923189 0.011762
vt 0.916544 0.000000
vt 0.923206 0.000000
vt 0.928985 0.018882
vt 0.929267 0.025673
vt 0.927999 0.014685
vt 0.927999 0.000000
vt 0.129379 0.976920
vt 0.129595 0.983788
vt 0.122687 0.985164
vt 0.135411 0.974327
vt 0.135118 0.981110
vt 0.144338 0.970818
vt 0.144338 0.978207
vt 0.129349 0.988238
vt 0.122687 0.990003
vt 0.134143 0.985315
vt 0.144338 0.983188
vt 0.938194 0.013231
vt 0.850689 0.466745
vt 0.851435 0.474690
vt 0.844894 0.470091
vt 0.856523 0.470818
vt 0.856767 0.478179
vt 0.076302 0.970818
vt 0.072169 0.974327
vt 0.072169 0.981118
vt 0.077386 0.978179
vt 0.851775 0.481096
vt 0.845504 0.477180
vt 0.856319 0.483187
vt 0.072169 0.985315
vt 0.079457 0.983187
vt 0.093819 0.985164
vt 0.086950 0.983835
vt 0.087128 0.976920
vt 0.093819 0.990003
vt 0.087174 0.988238
vt 0.887676 0.007600
vt 0.887676 0.000000
vt 0.881014 0.000000
vt 0.881031 0.009761
vt 0.081378 0.981118
vt 0.081096 0.974327
vt 0.082364 0.985315
vt 0.876220 0.000000
vt 0.876220 0.013231
vt 0.880984 0.023080
vt 0.880768 0.016213
vt 0.887676 0.014836
vt 0.874952 0.025673
vt 0.875246 0.018890
vt 0.866025 0.029182
vt 0.866025 0.021793
vt 0.881014 0.011762
vt 0.887676 0.009997
vt 0.876220 0.014685
vt 0.866025 0.016813
vt 0.873314 0.016813
vt 0.866025 0.013231
vt 0.866025 0.014685
vt 0.411362 0.462500
vt 0.417676 0.466745
vt 0.418422 0.474690
vt 0.411881 0.470091
vt 0.423510 0.470818
vt 0.423755 0.478179
vt 0.140204 0.529182
vt 0.144338 0.525673
vt 0.144338 0.518882
vt 0.139121 0.521821
vt 0.418762 0.481096
vt 0.412491 0.477180
vt 0.423306 0.483187
vt 0.144338 0.514685
vt 0.137049 0.516812
vt 0.122687 0.514836
vt 0.129556 0.516165
vt 0.129379 0.523080
vt 0.122687 0.509997
vt 0.129332 0.511762
vt 0.122687 0.500000
vt 0.129349 0.500000
vt 0.135129 0.518882
vt 0.135411 0.525673
vt 0.134143 0.514684
vt 0.134143 0.500000
vt 0.057210 0.976920
vt 0.057426 0.983788
vt 0.050518 0.985164
vt 0.063242 0.974327
vt 0.062949 0.981110
vt 0.072169 0.970818
vt 0.072169 0.978207
vt 0.057180 0.988238
vt 0.050518 0.990003
vt 0.061974 0.985315
vt 0.072169 0.983188
vt 0.064881 0.983187
vt 0.072169 0.986769
vt 0.072169 0.985315
vt 0.844894 0.029909
vt 0.851402 0.025291
vt 0.850689 0.033255
vt 0.845504 0.022820
vt 0.851757 0.018928
vt 0.843792 0.012837
vt 0.849673 0.009441
vt 0.856780 0.021793
vt 0.856523 0.029182
vt 0.856319 0.016813
vt 0.853308 0.007342
vt 0.021651 0.985164
vt 0.014782 0.983835
vt 0.014959 0.976920
vt 0.021651 0.990003
vt 0.015006 0.988238
vt 0.093819 0.507600
vt 0.093819 0.500000
vt 0.087157 0.500000
vt 0.087174 0.509761
vt 0.009209 0.981118
vt 0.008927 0.974327
vt 0.010195 0.985315
vt 0.082364 0.500000
vt 0.082364 0.513231
vt 0.087128 0.523080
vt 0.086912 0.516212
vt 0.093819 0.514836
vt 0.081096 0.525673
vt 0.081389 0.518890
vt 0.072169 0.529182
vt 0.072169 0.521793
vt 0.087157 0.511762
vt 0.093819 0.509997
vt 0.082364 0.514685
vt 0.072169 0.516812
vt 0.866025 0.014685
vt 0.938194 0.029182
vt 0.866025 0.470818
vt 0.916544 0.500000
vt 0.887676 0.000000
vt 0.144338 0.529182
vt 0.072169 0.970818
vt 0.093819 0.500000
vt 0.072169 0.529182
vt 0.455246 0.237163
vn -0.8660 0.0000 0.5000
vn 0.8660 0.0000 0.5000
vn 0.0000 1.0000 0.0000
vn -0.0000 0.0000 -1.0000
vn -0.1405 -0.9868 -0.0811
vn -0.4100 -0.9057 0.1074
vn -0.6253 -0.7352 0.2618
vn -0.1132 -0.9061 -0.4076
vn -0.3918 -0.8918 -0.2262
vn -0.6243 -0.7785 -0.0643
vn -0.8813 -0.2355 0.4097
vn -0.9547 -0.2954 0.0374
vn -0.8196 -0.3229 -0.4733
vn -0.7836 -0.5094 0.3556
vn -0.8105 -0.5857 0.0077
vn -0.6873 -0.6090 -0.3959
vn -0.0859 -0.2355 -0.9681
vn -0.0827 -0.5094 -0.8565
vn -0.0859 -0.7353 -0.6723
vn -0.4442 -0.2967 -0.8454
vn -0.3986 -0.5857 -0.7058
vn -0.3679 -0.7780 -0.5093
vn -0.5728 -0.7500 -0.3307
vn -0.1405 0.9868 -0.0811
vn -0.1120 0.9057 -0.4088
vn -0.0859 0.7352 -0.6724
vn -0.4096 0.9061 0.1058
vn -0.3918 0.8918 -0.2262
vn -0.3679 0.7785 -0.5085
vn -0.0859 0.2355 -0.9681
vn -0.4450 0.2954 -0.8454
vn -0.8197 0.3229 -0.4732
vn -0.0839 0.5094 -0.8564
vn -0.3986 0.5857 -0.7058
vn -0.6865 0.6090 -0.3972
vn -0.8813 0.2355 0.4097
vn -0.7831 0.5094 0.3567
vn -0.6252 0.7353 0.2617
vn -0.9542 0.2967 0.0380
vn -0.8105 0.5857 0.0077
vn -0.6250 0.7780 -0.0639
vn -0.5728 0.7500 -0.3307
vn 0.1405 -0.9868 -0.0811
vn 0.1120 -0.9057 -0.4088
vn 0.0859 -0.7352 -0.6724
vn 0.4096 -0.9061 0.1058
vn 0.3918 -0.8918 -0.2262
vn 0.3679 -0.7785 -0.5085
vn 0.0859 -0.2355 -0.9681
vn 0.4450 -0.2954 -0.8454
vn 0.8197 -0.3229 -0.4731
vn 0.0839 -0.5094 -0.8564
vn 0.3986 -0.5857 -0.7058
vn 0.6865 -0.6090 -0.3972
vn 0.8813 -0.2355 0.4097
vn 0.7831 -0.5094 0.3567
vn 0.6252 -0.7353 0.2617
vn 0.9542 -0.2967 0.0380
vn 0.8105 -0.5857 0.0077
vn 0.6250 -0.7780 -0.0639
vn 0.5728 -0.7500 -0.3307
vn 0.1405 0.9868 -0.0811
vn 0.4100 0.9057 0.1074
vn 0.6252 0.7352 0.2618
vn 0.1132 0.9061 -0.4076
vn 0.3918 0.8918 -0.2262
vn 0.6243 0.7785 -0.0644
vn 0.8813 0.2355 0.4097
vn 0.9547 0.2954 0.0374
vn 0.8196 0.3229 -0.4733
vn 0.7836 0.5094 0.3556
vn 0.8105 0.5857 0.0077
vn 0.6873 0.6090 -0.3959
vn 0.0859 0.2355 -0.9681
vn 0.0827 0.5094 -0.8565
vn 0.0859 0.7353 -0.6723
vn 0.4442 0.2967 -0.8454
vn 0.3986 0.5857 -0.7058
vn 0.3679 0.7780 -0.5093
vn 0.5728 0.7500 -0.3307
vn -0.0000 -0.9868 0.1622
vn 0.2981 -0.9057 0.3014
vn 0.5393 -0.7352 0.4106
vn -0.2964 -0.9061 0.3019
vn 0.0000 -0.8918 0.4525
vn 0.2564 -0.7785 0.5729
vn 0.7954 -0.2355 0.5584
vn 0.5097 -0.2954 0.8081
vn -0.0001 -0.3229 0.9464
vn 0.6997 -0.5094 0.5009
vn 0.4119 -0.5857 0.6981
vn 0.0008 -0.6090 0.7931
vn -0.7954 -0.2355 0.5584
vn -0.7004 -0.5094 0.4999
vn -0.5393 -0.7353 0.4106
vn -0.5100 -0.2967 0.8074
vn -0.4119 -0.5857 0.6981
vn -0.2571 -0.7780 0.5733
vn 0.0000 -0.7500 0.6614
vn 0.0000 0.9868 0.1622
vn -0.2981 0.9057 0.3014
vn -0.5393 0.7352 0.4106
vn 0.2964 0.9061 0.3019
vn -0.0000 0.8918 0.4525
vn -0.2564 0.7785 0.5729
vn -0.7954 0.2355 0.5584
vn -0.5097 0.2954 0.8081
vn 0.0001 0.3229 0.9464
vn -0.6997 0.5094 0.5009
vn -0.4119 0.5857 0.6981
vn -0.0008 0.6090 0.7931
vn 0.7954 0.2355 0.5584
vn 0.7004 0.5094 0.4999
vn 0.5393 0.7353 0.4106
vn 0.5100 0.2967 0.8074
vn 0.4119 0.5857 0.6981
vn 0.2571 0.7780 0.5733
vn -0.0000 0.7500 0.6614
vn 0.0000 -0.2100 -0.9777
vn 0.0000 -0.4767 -0.8790
vn -0.0000 -0.7071 -0.7071
vn -0.0000 -0.8847 -0.4661
vn 0.0000 -0.9862 -0.1656
vn 0.0000 0.2100 -0.9777
vn 0.0000 0.4767 -0.8790
vn -0.0000 0.7071 -0.7071
vn -0.0000 0.8847 -0.4661
vn 0.0000 0.9862 -0.1656
vn -0.9029 0.0000 0.4299
vn -0.9986 0.0000 0.0527
vn -0.8660 0.0000 -0.5000
vn -0.4537 0.0000 -0.8912
vn -0.0791 0.0000 -0.9969
vn 0.9029 -0.0000 0.4299
vn 0.9986 0.0000 0.0527
vn 0.8660 0.0000 -0.5000
vn 0.4537 0.0000 -0.8912
vn 0.0791 0.0000 -0.9969
vn 0.8467 -0.2100 0.4889
vn 0.7613 -0.4767 0.4395
vn 0.6124 -0.7071 0.3536
vn 0.4036 -0.8847 0.2330
vn 0.1434 -0.9862 0.0828
vn 0.8467 0.2100 0.4889
vn 0.7613 0.4767 0.4395
vn 0.6124 0.7071 0.3536
vn 0.4036 0.8847 0.2330
vn 0.1434 0.9862 0.0828
vn -0.8238 0.0000 0.5669
vn -0.5449 0.0000 0.8385
vn 0.0000 0.0000 1.0000
vn 0.5449 0.0000 0.8385
vn 0.8238 0.0000 0.5669
vn -0.8467 -0.2100 0.4889
vn -0.7613 -0.4767 0.4395
vn -0.6124 -0.7071 0.3536
vn -0.4036 -0.8847 0.2330
vn -0.1434 -0.9862 0.0828
vn -0.8467 0.2100 0.4889
vn -0.7613 0.4767 0.4395
vn -0.6124 0.7071 0.3536
vn -0.4036 0.8847 0.2330
vn -0.1434 0.9862 0.0828
vn 0.0000 -1.0000 0.0000
usemtl (null)
s off
f 111/1/1 137/2/1 30/3/1 2/4/1
f 57/5/2 83/6/2 138/7/2 110/8/2
f 82/9/3 28/10/3 136/11/3
f 3/12/4 29/13/4 84/14/4 56/15/4
f 1/16/5 4/17/5 7/18/5 6/19/5
f 4/17/6 5/20/6 8/21/6 7/18/6
f 5/22/7 17/23/7 18/24/7 8/25/7
f 6/19/8 7/18/8 10/26/8 9/27/8
f 7/18/9 8/21/9 11/28/9 10/26/9
f 8/25/10 18/24/10 19/29/10 11/30/10
f 2/4/11 12/31/11 15/32/11 14/33/11
f 12/31/12 13/34/12 16/35/12 15/32/12
f 13/36/13 25/37/13 26/38/13 16/39/13
f 14/33/14 15/32/14 18/40/14 17/41/14
f 15/32/15 16/35/15 19/42/15 18/40/15
f 16/39/16 26/38/16 27/43/16 19/44/16
f 3/12/17 20/45/17 23/46/17 22/47/17
f 20/45/18 21/48/18 24/49/18 23/46/18
f 21/48/19 9/50/19 10/51/19 24/49/19
f 22/47/20 23/46/20 26/52/20 25/53/20
f 23/46/21 24/49/21 27/54/21 26/52/21
f 24/49/22 10/51/22 11/55/22 27/54/22
f 11/56/23 19/57/23 27/58/23
f 28/10/24 31/59/24 34/60/24 33/61/24
f 31/59/25 32/62/25 35/63/25 34/60/25
f 32/64/26 44/65/26 45/66/26 35/67/26
f 33/61/27 34/60/27 37/68/27 36/69/27
f 34/60/28 35/63/28 38/70/28 37/68/28
f 35/67/29 45/66/29 46/71/29 38/72/29
f 29/13/30 39/73/30 42/74/30 41/75/30
f 39/73/31 40/76/31 43/77/31 42/74/31
f 40/76/32 52/78/32 53/79/32 43/77/32
f 41/75/33 42/74/33 45/80/33 44/81/33
f 42/74/34 43/77/34 46/82/34 45/80/34
f 43/77/35 53/79/35 54/83/35 46/82/35
f 30/3/36 47/84/36 50/85/36 49/86/36
f 47/84/37 48/87/37 51/88/37 50/85/37
f 48/89/38 36/90/38 37/91/38 51/92/38
f 49/86/39 50/85/39 53/93/39 52/94/39
f 50/85/40 51/88/40 54/95/40 53/93/40
f 51/92/41 37/91/41 38/96/41 54/97/41
f 38/72/42 46/71/42 54/98/42
f 55/99/43 58/100/43 61/101/43 60/102/43
f 58/100/44 59/103/44 62/104/44 61/101/44
f 59/105/45 71/106/45 72/107/45 62/108/45
f 60/102/46 61/101/46 64/109/46 63/110/46
f 61/101/47 62/104/47 65/111/47 64/109/47
f 62/108/48 72/107/48 73/112/48 65/113/48
f 56/15/49 66/114/49 69/115/49 68/116/49
f 66/114/50 67/117/50 70/118/50 69/115/50
f 67/117/51 79/119/51 80/120/51 70/118/51
f 68/116/52 69/115/52 72/121/52 71/122/52
f 69/115/53 70/118/53 73/123/53 72/121/53
f 70/118/54 80/120/54 81/124/54 73/123/54
f 57/5/55 74/125/55 77/126/55 76/127/55
f 74/125/56 75/128/56 78/129/56 77/126/56
f 75/128/57 63/130/57 64/131/57 78/129/57
f 76/127/58 77/126/58 80/132/58 79/133/58
f 77/126/59 78/129/59 81/134/59 80/132/59
f 78/129/60 64/131/60 65/135/60 81/134/60
f 65/113/61 73/112/61 81/136/61
f 82/9/62 85/137/62 88/138/62 87/139/62
f 85/137/63 86/140/63 89/141/63 88/138/63
f 86/142/64 98/143/64 99/144/64 89/145/64
f 87/139/65 88/138/65 91/146/65 90/147/65
f 88/138/66 89/141/66 92/148/66 91/146/66
f 89/145/67 99/144/67 100/149/67 92/150/67
f 83/6/68 93/151/68 96/152/68 95/153/68
f 93/151/69 94/154/69 97/155/69 96/152/69
f 94/156/70 106/157/70 107/158/70 97/159/70
f 95/153/71 96/152/71 99/160/71 98/161/71
f 96/152/72 97/155/72 100/162/72 99/160/72
f 97/159/73 107/158/73 108/163/73 100/164/73
f 84/14/74 101/165/74 104/166/74 103/167/74
f 101/165/75 102/168/75 105/169/75 104/166/75
f 102/168/76 90/170/76 91/171/76 105/169/76
f 103/167/77 104/166/77 107/172/77 106/173/77
f 104/166/78 105/169/78 108/174/78 107/172/78
f 105/169/79 91/171/79 92/175/79 108/174/79
f 92/176/80 100/177/80 108/178/80
f 109/179/81 112/180/81 115/181/81 114/182/81
f 112/180/82 113/183/82 116/184/82 115/181/82
f 113/185/83 125/186/83 126/187/83 116/188/83
f 114/182/84 115/181/84 118/189/84 117/190/84
f 115/181/85 116/184/85 119/191/85 118/189/85
f 116/188/86 126/187/86 127/192/86 119/193/86
f 110/8/87 120/194/87 123/195/87 122/196/87
f 120/194/88 121/197/88 124/198/88 123/195/88
f 121/197/89 133/199/89 134/200/89 124/198/89
f 122/196/90 123/195/90 126/201/90 125/202/90
f 123/195/91 124/198/91 127/203/91 126/201/91
f 124/198/92 134/200/92 135/204/92 127/203/92
f 111/1/93 128/205/93 131/206/93 130/207/93
f 128/205/94 129/208/94 132/209/94 131/206/94
f 129/208/95 117/210/95 118/211/95 132/209/95
f 130/207/96 131/206/96 134/212/96 133/213/96
f 131/206/97 132/209/97 135/214/97 134/212/97
f 132/209/98 118/211/98 119/215/98 135/214/98
f 119/216/99 127/217/99 135/218/99
f 136/11/100 139/219/100 142/220/100 141/221/100
f 139/219/101 140/222/101 143/223/101 142/220/101
f 140/222/102 152/224/102 153/225/102 143/223/102
f 141/221/103 142/220/103 145/226/103 144/227/103
f 142/220/104 143/223/104 146/228/104 145/226/104
f 143/223/105 153/225/105 154/229/105 146/228/105
f 137/2/106 147/230/106 150/231/106 149/232/106
f 147/230/107 148/233/107 151/234/107 150/231/107
f 148/235/108 160/236/108 161/237/108 151/238/108
f 149/232/109 150/231/109 153/239/109 152/240/109
f 150/231/110 151/234/110 154/241/110 153/239/110
f 151/238/111 161/237/111 162/242/111 154/243/111
f 138/7/112 155/244/112 158/245/112 157/246/112
f 155/244/113 156/247/113 159/248/113 158/245/113
f 156/247/114 144/249/114 145/250/114 159/248/114
f 157/246/115 158/245/115 161/251/115 160/252/115
f 158/245/116 159/248/116 162/253/116 161/251/116
f 159/248/117 145/250/117 146/254/117 162/253/117
f 146/228/118 154/229/118 162/255/118
f 3/12/119 56/15/119 68/116/119 20/45/119
f 20/45/120 68/116/120 71/122/120 21/48/120
f 21/48/121 71/122/121 59/256/121 9/50/121
f 9/27/122 59/103/122 58/100/122 6/19/122
f 6/19/123 58/100/123 55/99/123 1/16/123
f 84/14/124 29/13/124 41/75/124 101/165/124
f 101/165/125 41/75/125 44/81/125 102/168/125
f 102/168/126 44/81/126 32/257/126 90/170/126
f 90/147/127 32/62/127 31/59/127 87/139/127
f 87/139/128 31/59/128 28/10/128 82/9/128
f 2/4/129 30/3/129 49/86/129 12/31/129
f 12/31/130 49/86/130 52/94/130 13/34/130
f 13/258/131 52/78/131 40/76/131 25/53/131
f 25/53/132 40/76/132 39/73/132 22/47/132
f 22/47/133 39/73/133 29/13/133 3/12/133
f 83/6/134 57/5/134 76/127/134 93/151/134
f 93/151/135 76/127/135 79/133/135 94/154/135
f 94/259/136 79/119/136 67/117/136 106/173/136
f 106/173/137 67/117/137 66/114/137 103/167/137
f 103/167/138 66/114/138 56/15/138 84/14/138
f 57/5/139 110/8/139 122/196/139 74/125/139
f 74/125/140 122/196/140 125/202/140 75/128/140
f 75/128/141 125/202/141 113/260/141 63/130/141
f 63/110/142 113/183/142 112/180/142 60/102/142
f 60/102/143 112/180/143 109/179/143 55/99/143
f 138/7/144 83/6/144 95/153/144 155/244/144
f 155/244/145 95/153/145 98/161/145 156/247/145
f 156/247/146 98/161/146 86/261/146 144/249/146
f 144/227/147 86/140/147 85/137/147 141/221/147
f 141/221/148 85/137/148 82/9/148 136/11/148
f 137/2/149 111/1/149 130/207/149 147/230/149
f 147/230/150 130/207/150 133/213/150 148/233/150
f 148/262/151 133/199/151 121/197/151 160/252/151
f 160/252/152 121/197/152 120/194/152 157/246/152
f 157/246/153 120/194/153 110/8/153 138/7/153
f 111/1/154 2/4/154 14/33/154 128/205/154
f 128/205/155 14/33/155 17/41/155 129/208/155
f 129/208/156 17/41/156 5/263/156 117/210/156
f 117/190/157 5/20/157 4/17/157 114/182/157
f 114/182/158 4/17/158 1/16/158 109/179/158
f 30/3/159 137/2/159 149/232/159 47/84/159
f 47/84/160 149/232/160 152/240/160 48/87/160
f 48/264/161 152/224/161 140/222/161 36/69/161
f 36/69/162 140/222/162 139/219/162 33/61/162
f 33/61/163 139/219/163 136/11/163 28/10/163
f 1/16/164 55/99/164 109/179/164
